# Tiled2Unity generated file. Do not modify by hand.
# Wavefront file for 'test_mesh_0003.obj'

# Vertices (Count = 296)
v -384 -16 0
v -400 -16 0
v -400 0 0
v -384 0 0
v -368 -16 0
v -384 -16 0
v -384 0 0
v -368 0 0
v -304 -128 0
v -320 -128 0
v -320 -112 0
v -304 -112 0
v -288 -128 0
v -304 -128 0
v -304 -112 0
v -288 -112 0
v -272 -128 0
v -288 -128 0
v -288 -112 0
v -272 -112 0
v -256 -128 0
v -272 -128 0
v -272 -112 0
v -256 -112 0
v -240 -128 0
v -256 -128 0
v -256 -112 0
v -240 -112 0
v -224 -128 0
v -240 -128 0
v -240 -112 0
v -224 -112 0
v -208 -128 0
v -224 -128 0
v -224 -112 0
v -208 -112 0
v -192 -128 0
v -208 -128 0
v -208 -112 0
v -192 -112 0
v -176 -128 0
v -192 -128 0
v -192 -112 0
v -176 -112 0
v -160 -128 0
v -176 -128 0
v -176 -112 0
v -160 -112 0
v -304 -144 0
v -320 -144 0
v -320 -128 0
v -304 -128 0
v -288 -144 0
v -304 -144 0
v -304 -128 0
v -288 -128 0
v -272 -144 0
v -288 -144 0
v -288 -128 0
v -272 -128 0
v -256 -144 0
v -272 -144 0
v -272 -128 0
v -256 -128 0
v -240 -144 0
v -256 -144 0
v -256 -128 0
v -240 -128 0
v -224 -144 0
v -240 -144 0
v -240 -128 0
v -224 -128 0
v -208 -144 0
v -224 -144 0
v -224 -128 0
v -208 -128 0
v -192 -144 0
v -208 -144 0
v -208 -128 0
v -192 -128 0
v -176 -144 0
v -192 -144 0
v -192 -128 0
v -176 -128 0
v -160 -144 0
v -176 -144 0
v -176 -128 0
v -160 -128 0
v -304 -160 0
v -320 -160 0
v -320 -144 0
v -304 -144 0
v -288 -160 0
v -304 -160 0
v -304 -144 0
v -288 -144 0
v -272 -160 0
v -288 -160 0
v -288 -144 0
v -272 -144 0
v -256 -160 0
v -272 -160 0
v -272 -144 0
v -256 -144 0
v -240 -160 0
v -256 -160 0
v -256 -144 0
v -240 -144 0
v -224 -160 0
v -240 -160 0
v -240 -144 0
v -224 -144 0
v -208 -160 0
v -224 -160 0
v -224 -144 0
v -208 -144 0
v -192 -160 0
v -208 -160 0
v -208 -144 0
v -192 -144 0
v -176 -160 0
v -192 -160 0
v -192 -144 0
v -176 -144 0
v -160 -160 0
v -176 -160 0
v -176 -144 0
v -160 -144 0
v -304 -176 0
v -320 -176 0
v -320 -160 0
v -304 -160 0
v -288 -176 0
v -304 -176 0
v -304 -160 0
v -288 -160 0
v -272 -176 0
v -288 -176 0
v -288 -160 0
v -272 -160 0
v -256 -176 0
v -272 -176 0
v -272 -160 0
v -256 -160 0
v -240 -176 0
v -256 -176 0
v -256 -160 0
v -240 -160 0
v -224 -176 0
v -240 -176 0
v -240 -160 0
v -224 -160 0
v -208 -176 0
v -224 -176 0
v -224 -160 0
v -208 -160 0
v -192 -176 0
v -208 -176 0
v -208 -160 0
v -192 -160 0
v -176 -176 0
v -192 -176 0
v -192 -160 0
v -176 -160 0
v -160 -176 0
v -176 -176 0
v -176 -160 0
v -160 -160 0
v -304 -192 0
v -320 -192 0
v -320 -176 0
v -304 -176 0
v -288 -192 0
v -304 -192 0
v -304 -176 0
v -288 -176 0
v -272 -192 0
v -288 -192 0
v -288 -176 0
v -272 -176 0
v -256 -192 0
v -272 -192 0
v -272 -176 0
v -256 -176 0
v -240 -192 0
v -256 -192 0
v -256 -176 0
v -240 -176 0
v -224 -192 0
v -240 -192 0
v -240 -176 0
v -224 -176 0
v -208 -192 0
v -224 -192 0
v -224 -176 0
v -208 -176 0
v -192 -192 0
v -208 -192 0
v -208 -176 0
v -192 -176 0
v -176 -192 0
v -192 -192 0
v -192 -176 0
v -176 -176 0
v -160 -192 0
v -176 -192 0
v -176 -176 0
v -160 -176 0
v -304 -208 0
v -320 -208 0
v -320 -192 0
v -304 -192 0
v -288 -208 0
v -304 -208 0
v -304 -192 0
v -288 -192 0
v -272 -208 0
v -288 -208 0
v -288 -192 0
v -272 -192 0
v -256 -208 0
v -272 -208 0
v -272 -192 0
v -256 -192 0
v -240 -208 0
v -256 -208 0
v -256 -192 0
v -240 -192 0
v -224 -208 0
v -240 -208 0
v -240 -192 0
v -224 -192 0
v -208 -208 0
v -224 -208 0
v -224 -192 0
v -208 -192 0
v -192 -208 0
v -208 -208 0
v -208 -192 0
v -192 -192 0
v -176 -208 0
v -192 -208 0
v -192 -192 0
v -176 -192 0
v -160 -208 0
v -176 -208 0
v -176 -192 0
v -160 -192 0
v -304 -224 0
v -320 -224 0
v -320 -208 0
v -304 -208 0
v -288 -224 0
v -304 -224 0
v -304 -208 0
v -288 -208 0
v -272 -224 0
v -288 -224 0
v -288 -208 0
v -272 -208 0
v -256 -224 0
v -272 -224 0
v -272 -208 0
v -256 -208 0
v -240 -224 0
v -256 -224 0
v -256 -208 0
v -240 -208 0
v -224 -224 0
v -240 -224 0
v -240 -208 0
v -224 -208 0
v -304 -240 0
v -320 -240 0
v -320 -224 0
v -304 -224 0
v -288 -240 0
v -304 -240 0
v -304 -224 0
v -288 -224 0
v -272 -240 0
v -288 -240 0
v -288 -224 0
v -272 -224 0
v -304 -256 0
v -320 -256 0
v -320 -240 0
v -304 -240 0
v -288 -256 0
v -304 -256 0
v -304 -240 0
v -288 -240 0
v -272 -256 0
v -288 -256 0
v -288 -240 0
v -272 -240 0

# Texture cooridinates (Count = 65)
vt 0.1190476 0.8630528
vt 0.1428571 0.8630528
vt 0.1428571 0.8858773
vt 0.1190476 0.8858773
vt 0.1666667 0.7489301
vt 0.1904762 0.7489301
vt 0.1904762 0.7717546
vt 0.1666667 0.7717546
vt 0.1428571 0.7489301
vt 0.1428571 0.7717546
vt 0.1190476 0.7489301
vt 0.1190476 0.7717546
vt 0.0952381 0.7489301
vt 0.0952381 0.7717546
vt 0.07142857 0.7489301
vt 0.07142857 0.7717546
vt 0.04761905 0.7489301
vt 0.04761905 0.7717546
vt 0.1666667 0.7261056
vt 0.1904762 0.7261056
vt 0.1428571 0.7261056
vt 0.1190476 0.7261056
vt 0.0952381 0.7261056
vt 0.07142857 0.7261056
vt 0.04761905 0.7261056
vt 0.1666667 0.657632
vt 0.1904762 0.657632
vt 0.1904762 0.6804565
vt 0.1666667 0.6804565
vt 0.1428571 0.657632
vt 0.1428571 0.6804565
vt 0.1190476 0.657632
vt 0.1190476 0.6804565
vt 0.0952381 0.657632
vt 0.0952381 0.6804565
vt 0.07142857 0.657632
vt 0.07142857 0.6804565
vt 0.04761905 0.703281
vt 0.07142857 0.703281
vt 0.1190476 0.703281
vt 0.1428571 0.703281
vt 0.0952381 0.703281
vt 0.04761905 0.6804565
vt 0.04761905 0.657632
vt 0.1666667 0.6348074
vt 0.1904762 0.6348074
vt 0.1190476 0.6348074
vt 0.1428571 0.6348074
vt 0.0952381 0.6348074
vt 0.07142857 0.6348074
vt 0.04761905 0.6348074
vt 0.1666667 0.1326676
vt 0.1904762 0.1326676
vt 0.1904762 0.1554921
vt 0.1666667 0.1554921
vt 0.1666667 0.1098431
vt 0.1904762 0.1098431
vt 0.1428571 0.1098431
vt 0.1428571 0.1326676
vt 0.1190476 0.1098431
vt 0.1190476 0.1326676
vt 0.1666667 0.08701855
vt 0.1904762 0.08701855
vt 0.1428571 0.08701855
vt 0.1190476 0.08701855

# Normal
vn 0 0 -1

# Mesh description
g test_mesh_0003

# Faces
f 1/1/1 2/2/1 3/3/1 4/4/1
f 5/1/1 6/2/1 7/3/1 8/4/1
f 9/5/1 10/6/1 11/7/1 12/8/1
f 13/9/1 14/5/1 15/8/1 16/10/1
f 17/11/1 18/9/1 19/10/1 20/12/1
f 21/13/1 22/11/1 23/12/1 24/14/1
f 25/15/1 26/13/1 27/14/1 28/16/1
f 29/17/1 30/15/1 31/16/1 32/18/1
f 33/11/1 34/9/1 35/10/1 36/12/1
f 37/13/1 38/11/1 39/12/1 40/14/1
f 41/15/1 42/13/1 43/14/1 44/16/1
f 45/17/1 46/15/1 47/16/1 48/18/1
f 49/19/1 50/20/1 51/6/1 52/5/1
f 53/21/1 54/19/1 55/5/1 56/9/1
f 57/22/1 58/21/1 59/9/1 60/11/1
f 61/23/1 62/22/1 63/11/1 64/13/1
f 65/24/1 66/23/1 67/13/1 68/15/1
f 69/25/1 70/24/1 71/15/1 72/17/1
f 73/22/1 74/21/1 75/9/1 76/11/1
f 77/23/1 78/22/1 79/11/1 80/13/1
f 81/24/1 82/23/1 83/13/1 84/15/1
f 85/25/1 86/24/1 87/15/1 88/17/1
f 89/26/1 90/27/1 91/28/1 92/29/1
f 93/30/1 94/26/1 95/29/1 96/31/1
f 97/32/1 98/30/1 99/31/1 100/33/1
f 101/34/1 102/32/1 103/33/1 104/35/1
f 105/36/1 106/34/1 107/35/1 108/37/1
f 109/38/1 110/39/1 111/24/1 112/25/1
f 113/40/1 114/41/1 115/21/1 116/22/1
f 117/42/1 118/40/1 119/22/1 120/23/1
f 121/39/1 122/42/1 123/23/1 124/24/1
f 125/38/1 126/39/1 127/24/1 128/25/1
f 129/26/1 130/27/1 131/28/1 132/29/1
f 133/30/1 134/26/1 135/29/1 136/31/1
f 137/32/1 138/30/1 139/31/1 140/33/1
f 141/34/1 142/32/1 143/33/1 144/35/1
f 145/36/1 146/34/1 147/35/1 148/37/1
f 149/43/1 150/37/1 151/39/1 152/38/1
f 153/33/1 154/31/1 155/41/1 156/40/1
f 157/35/1 158/33/1 159/40/1 160/42/1
f 161/37/1 162/35/1 163/42/1 164/39/1
f 165/43/1 166/37/1 167/39/1 168/38/1
f 169/26/1 170/27/1 171/28/1 172/29/1
f 173/26/1 174/27/1 175/28/1 176/29/1
f 177/30/1 178/26/1 179/29/1 180/31/1
f 181/32/1 182/30/1 183/31/1 184/33/1
f 185/34/1 186/32/1 187/33/1 188/35/1
f 189/36/1 190/34/1 191/35/1 192/37/1
f 193/32/1 194/30/1 195/31/1 196/33/1
f 197/34/1 198/32/1 199/33/1 200/35/1
f 201/36/1 202/34/1 203/35/1 204/37/1
f 205/44/1 206/36/1 207/37/1 208/43/1
f 209/45/1 210/46/1 211/27/1 212/26/1
f 213/26/1 214/27/1 215/28/1 216/29/1
f 217/30/1 218/26/1 219/29/1 220/31/1
f 221/32/1 222/30/1 223/31/1 224/33/1
f 225/34/1 226/32/1 227/33/1 228/35/1
f 229/36/1 230/34/1 231/35/1 232/37/1
f 233/47/1 234/48/1 235/30/1 236/32/1
f 237/49/1 238/47/1 239/32/1 240/34/1
f 241/50/1 242/49/1 243/34/1 244/36/1
f 245/51/1 246/50/1 247/36/1 248/44/1
f 249/52/1 250/53/1 251/54/1 252/55/1
f 253/45/1 254/46/1 255/27/1 256/26/1
f 257/48/1 258/45/1 259/26/1 260/30/1
f 261/47/1 262/48/1 263/30/1 264/32/1
f 265/49/1 266/47/1 267/32/1 268/34/1
f 269/50/1 270/49/1 271/34/1 272/36/1
f 273/56/1 274/57/1 275/53/1 276/52/1
f 277/58/1 278/56/1 279/52/1 280/59/1
f 281/60/1 282/58/1 283/59/1 284/61/1
f 285/62/1 286/63/1 287/57/1 288/56/1
f 289/64/1 290/62/1 291/56/1 292/58/1
f 293/65/1 294/64/1 295/58/1 296/60/1

